<mxfile host="app.diagrams.net" modified="2023-10-29T16:57:03.841Z" agent="Mozilla/5.0 (Windows NT 10.0; Win64; x64) AppleWebKit/537.36 (KHTML, like Gecko) Chrome/118.0.0.0 Safari/537.36" etag="vd74M0gA3d9qPove0KIr" version="22.0.8" type="device">
  <diagram name="Page-1" id="TAxgIEG_zxdoEUdoDiCP">
    <mxGraphModel dx="1651" dy="887" grid="0" gridSize="10" guides="1" tooltips="1" connect="1" arrows="1" fold="1" page="1" pageScale="1" pageWidth="827" pageHeight="1169" math="0" shadow="0">
      <root>
        <mxCell id="0" />
        <mxCell id="1" parent="0" />
        <mxCell id="TRqNR9U4z2Vo2nN1Ei8_-14" value="" style="shape=table;startSize=0;container=1;collapsible=0;childLayout=tableLayout;fontSize=16;" parent="1" vertex="1">
          <mxGeometry x="73" y="101" width="176" height="73" as="geometry" />
        </mxCell>
        <mxCell id="TRqNR9U4z2Vo2nN1Ei8_-15" value="" style="shape=tableRow;horizontal=0;startSize=0;swimlaneHead=0;swimlaneBody=0;strokeColor=inherit;top=0;left=0;bottom=0;right=0;collapsible=0;dropTarget=0;fillColor=none;points=[[0,0.5],[1,0.5]];portConstraint=eastwest;fontSize=16;" parent="TRqNR9U4z2Vo2nN1Ei8_-14" vertex="1">
          <mxGeometry width="176" height="24" as="geometry" />
        </mxCell>
        <mxCell id="TRqNR9U4z2Vo2nN1Ei8_-16" value="" style="shape=partialRectangle;html=1;whiteSpace=wrap;connectable=0;strokeColor=inherit;overflow=hidden;fillColor=none;top=0;left=0;bottom=0;right=0;pointerEvents=1;fontSize=16;rowspan=2;colspan=2;" parent="TRqNR9U4z2Vo2nN1Ei8_-15" vertex="1">
          <mxGeometry width="176" height="49" as="geometry">
            <mxRectangle width="88" height="24" as="alternateBounds" />
          </mxGeometry>
        </mxCell>
        <mxCell id="TRqNR9U4z2Vo2nN1Ei8_-17" value="" style="shape=partialRectangle;html=1;whiteSpace=wrap;connectable=0;strokeColor=inherit;overflow=hidden;fillColor=none;top=0;left=0;bottom=0;right=0;pointerEvents=1;fontSize=16;" parent="TRqNR9U4z2Vo2nN1Ei8_-15" vertex="1" visible="0">
          <mxGeometry x="88" width="88" height="24" as="geometry">
            <mxRectangle width="88" height="24" as="alternateBounds" />
          </mxGeometry>
        </mxCell>
        <mxCell id="TRqNR9U4z2Vo2nN1Ei8_-19" value="" style="shape=tableRow;horizontal=0;startSize=0;swimlaneHead=0;swimlaneBody=0;strokeColor=inherit;top=0;left=0;bottom=0;right=0;collapsible=0;dropTarget=0;fillColor=none;points=[[0,0.5],[1,0.5]];portConstraint=eastwest;fontSize=16;" parent="TRqNR9U4z2Vo2nN1Ei8_-14" vertex="1">
          <mxGeometry y="24" width="176" height="25" as="geometry" />
        </mxCell>
        <mxCell id="TRqNR9U4z2Vo2nN1Ei8_-20" value="" style="shape=partialRectangle;html=1;whiteSpace=wrap;connectable=0;strokeColor=inherit;overflow=hidden;fillColor=none;top=0;left=0;bottom=0;right=0;pointerEvents=1;fontSize=16;" parent="TRqNR9U4z2Vo2nN1Ei8_-19" vertex="1" visible="0">
          <mxGeometry width="88" height="25" as="geometry">
            <mxRectangle width="88" height="25" as="alternateBounds" />
          </mxGeometry>
        </mxCell>
        <mxCell id="TRqNR9U4z2Vo2nN1Ei8_-21" value="" style="shape=partialRectangle;html=1;whiteSpace=wrap;connectable=0;strokeColor=inherit;overflow=hidden;fillColor=none;top=0;left=0;bottom=0;right=0;pointerEvents=1;fontSize=16;" parent="TRqNR9U4z2Vo2nN1Ei8_-19" vertex="1" visible="0">
          <mxGeometry x="88" width="88" height="25" as="geometry">
            <mxRectangle width="88" height="25" as="alternateBounds" />
          </mxGeometry>
        </mxCell>
        <mxCell id="TRqNR9U4z2Vo2nN1Ei8_-23" value="" style="shape=tableRow;horizontal=0;startSize=0;swimlaneHead=0;swimlaneBody=0;strokeColor=inherit;top=0;left=0;bottom=0;right=0;collapsible=0;dropTarget=0;fillColor=none;points=[[0,0.5],[1,0.5]];portConstraint=eastwest;fontSize=16;" parent="TRqNR9U4z2Vo2nN1Ei8_-14" vertex="1">
          <mxGeometry y="49" width="176" height="24" as="geometry" />
        </mxCell>
        <mxCell id="TRqNR9U4z2Vo2nN1Ei8_-24" value="" style="shape=partialRectangle;html=1;whiteSpace=wrap;connectable=0;strokeColor=inherit;overflow=hidden;fillColor=none;top=0;left=0;bottom=0;right=0;pointerEvents=1;fontSize=16;" parent="TRqNR9U4z2Vo2nN1Ei8_-23" vertex="1">
          <mxGeometry width="88" height="24" as="geometry">
            <mxRectangle width="88" height="24" as="alternateBounds" />
          </mxGeometry>
        </mxCell>
        <mxCell id="TRqNR9U4z2Vo2nN1Ei8_-25" value="" style="shape=partialRectangle;html=1;whiteSpace=wrap;connectable=0;strokeColor=inherit;overflow=hidden;fillColor=none;top=0;left=0;bottom=0;right=0;pointerEvents=1;fontSize=16;" parent="TRqNR9U4z2Vo2nN1Ei8_-23" vertex="1">
          <mxGeometry x="88" width="88" height="24" as="geometry">
            <mxRectangle width="88" height="24" as="alternateBounds" />
          </mxGeometry>
        </mxCell>
        <mxCell id="TRqNR9U4z2Vo2nN1Ei8_-30" value="" style="shape=table;startSize=0;container=1;collapsible=0;childLayout=tableLayout;fontSize=16;" parent="1" vertex="1">
          <mxGeometry x="329" y="180" width="176" height="73" as="geometry" />
        </mxCell>
        <mxCell id="TRqNR9U4z2Vo2nN1Ei8_-31" value="" style="shape=tableRow;horizontal=0;startSize=0;swimlaneHead=0;swimlaneBody=0;strokeColor=inherit;top=0;left=0;bottom=0;right=0;collapsible=0;dropTarget=0;fillColor=none;points=[[0,0.5],[1,0.5]];portConstraint=eastwest;fontSize=16;" parent="TRqNR9U4z2Vo2nN1Ei8_-30" vertex="1">
          <mxGeometry width="176" height="24" as="geometry" />
        </mxCell>
        <mxCell id="TRqNR9U4z2Vo2nN1Ei8_-32" value="Переход на вкладку создания отчета" style="shape=partialRectangle;html=1;whiteSpace=wrap;connectable=0;strokeColor=inherit;overflow=hidden;fillColor=none;top=0;left=0;bottom=0;right=0;pointerEvents=1;fontSize=16;rowspan=2;colspan=2;" parent="TRqNR9U4z2Vo2nN1Ei8_-31" vertex="1">
          <mxGeometry width="176" height="49" as="geometry">
            <mxRectangle width="88" height="24" as="alternateBounds" />
          </mxGeometry>
        </mxCell>
        <mxCell id="TRqNR9U4z2Vo2nN1Ei8_-33" value="" style="shape=partialRectangle;html=1;whiteSpace=wrap;connectable=0;strokeColor=inherit;overflow=hidden;fillColor=none;top=0;left=0;bottom=0;right=0;pointerEvents=1;fontSize=16;" parent="TRqNR9U4z2Vo2nN1Ei8_-31" vertex="1" visible="0">
          <mxGeometry x="88" width="88" height="24" as="geometry">
            <mxRectangle width="88" height="24" as="alternateBounds" />
          </mxGeometry>
        </mxCell>
        <mxCell id="TRqNR9U4z2Vo2nN1Ei8_-34" value="" style="shape=tableRow;horizontal=0;startSize=0;swimlaneHead=0;swimlaneBody=0;strokeColor=inherit;top=0;left=0;bottom=0;right=0;collapsible=0;dropTarget=0;fillColor=none;points=[[0,0.5],[1,0.5]];portConstraint=eastwest;fontSize=16;" parent="TRqNR9U4z2Vo2nN1Ei8_-30" vertex="1">
          <mxGeometry y="24" width="176" height="25" as="geometry" />
        </mxCell>
        <mxCell id="TRqNR9U4z2Vo2nN1Ei8_-35" value="" style="shape=partialRectangle;html=1;whiteSpace=wrap;connectable=0;strokeColor=inherit;overflow=hidden;fillColor=none;top=0;left=0;bottom=0;right=0;pointerEvents=1;fontSize=16;" parent="TRqNR9U4z2Vo2nN1Ei8_-34" vertex="1" visible="0">
          <mxGeometry width="88" height="25" as="geometry">
            <mxRectangle width="88" height="25" as="alternateBounds" />
          </mxGeometry>
        </mxCell>
        <mxCell id="TRqNR9U4z2Vo2nN1Ei8_-36" value="" style="shape=partialRectangle;html=1;whiteSpace=wrap;connectable=0;strokeColor=inherit;overflow=hidden;fillColor=none;top=0;left=0;bottom=0;right=0;pointerEvents=1;fontSize=16;" parent="TRqNR9U4z2Vo2nN1Ei8_-34" vertex="1" visible="0">
          <mxGeometry x="88" width="88" height="25" as="geometry">
            <mxRectangle width="88" height="25" as="alternateBounds" />
          </mxGeometry>
        </mxCell>
        <mxCell id="TRqNR9U4z2Vo2nN1Ei8_-37" value="" style="shape=tableRow;horizontal=0;startSize=0;swimlaneHead=0;swimlaneBody=0;strokeColor=inherit;top=0;left=0;bottom=0;right=0;collapsible=0;dropTarget=0;fillColor=none;points=[[0,0.5],[1,0.5]];portConstraint=eastwest;fontSize=16;" parent="TRqNR9U4z2Vo2nN1Ei8_-30" vertex="1">
          <mxGeometry y="49" width="176" height="24" as="geometry" />
        </mxCell>
        <mxCell id="TRqNR9U4z2Vo2nN1Ei8_-38" value="1" style="shape=partialRectangle;html=1;whiteSpace=wrap;connectable=0;strokeColor=inherit;overflow=hidden;fillColor=none;top=0;left=0;bottom=0;right=0;pointerEvents=1;fontSize=16;" parent="TRqNR9U4z2Vo2nN1Ei8_-37" vertex="1">
          <mxGeometry width="88" height="24" as="geometry">
            <mxRectangle width="88" height="24" as="alternateBounds" />
          </mxGeometry>
        </mxCell>
        <mxCell id="TRqNR9U4z2Vo2nN1Ei8_-39" value="" style="shape=partialRectangle;html=1;whiteSpace=wrap;connectable=0;strokeColor=inherit;overflow=hidden;fillColor=none;top=0;left=0;bottom=0;right=0;pointerEvents=1;fontSize=16;" parent="TRqNR9U4z2Vo2nN1Ei8_-37" vertex="1">
          <mxGeometry x="88" width="88" height="24" as="geometry">
            <mxRectangle width="88" height="24" as="alternateBounds" />
          </mxGeometry>
        </mxCell>
        <mxCell id="TRqNR9U4z2Vo2nN1Ei8_-40" value="" style="shape=table;startSize=0;container=1;collapsible=0;childLayout=tableLayout;fontSize=16;" parent="1" vertex="1">
          <mxGeometry x="117" y="226" width="44" height="40" as="geometry" />
        </mxCell>
        <mxCell id="TRqNR9U4z2Vo2nN1Ei8_-41" value="" style="shape=tableRow;horizontal=0;startSize=0;swimlaneHead=0;swimlaneBody=0;strokeColor=inherit;top=0;left=0;bottom=0;right=0;collapsible=0;dropTarget=0;fillColor=none;points=[[0,0.5],[1,0.5]];portConstraint=eastwest;fontSize=16;" parent="TRqNR9U4z2Vo2nN1Ei8_-40" vertex="1">
          <mxGeometry width="44" height="40" as="geometry" />
        </mxCell>
        <mxCell id="TRqNR9U4z2Vo2nN1Ei8_-42" value="" style="shape=partialRectangle;html=1;whiteSpace=wrap;connectable=0;strokeColor=inherit;overflow=hidden;fillColor=none;top=0;left=0;bottom=0;right=0;pointerEvents=1;fontSize=16;" parent="TRqNR9U4z2Vo2nN1Ei8_-41" vertex="1">
          <mxGeometry width="15" height="40" as="geometry">
            <mxRectangle width="15" height="40" as="alternateBounds" />
          </mxGeometry>
        </mxCell>
        <mxCell id="TRqNR9U4z2Vo2nN1Ei8_-43" value="&amp;amp;" style="shape=partialRectangle;html=1;whiteSpace=wrap;connectable=0;strokeColor=inherit;overflow=hidden;fillColor=none;top=0;left=0;bottom=0;right=0;pointerEvents=1;fontSize=16;rowspan=1;colspan=2;" parent="TRqNR9U4z2Vo2nN1Ei8_-41" vertex="1">
          <mxGeometry x="15" width="29" height="40" as="geometry">
            <mxRectangle width="14" height="40" as="alternateBounds" />
          </mxGeometry>
        </mxCell>
        <mxCell id="TRqNR9U4z2Vo2nN1Ei8_-44" value="" style="shape=partialRectangle;html=1;whiteSpace=wrap;connectable=0;strokeColor=inherit;overflow=hidden;fillColor=none;top=0;left=0;bottom=0;right=0;pointerEvents=1;fontSize=16;" parent="TRqNR9U4z2Vo2nN1Ei8_-41" vertex="1" visible="0">
          <mxGeometry x="29" width="15" height="40" as="geometry">
            <mxRectangle width="15" height="40" as="alternateBounds" />
          </mxGeometry>
        </mxCell>
        <mxCell id="TRqNR9U4z2Vo2nN1Ei8_-53" value="" style="shape=table;startSize=0;container=1;collapsible=0;childLayout=tableLayout;fontSize=16;" parent="1" vertex="1">
          <mxGeometry x="561" y="180" width="176" height="73" as="geometry" />
        </mxCell>
        <mxCell id="TRqNR9U4z2Vo2nN1Ei8_-54" value="" style="shape=tableRow;horizontal=0;startSize=0;swimlaneHead=0;swimlaneBody=0;strokeColor=inherit;top=0;left=0;bottom=0;right=0;collapsible=0;dropTarget=0;fillColor=none;points=[[0,0.5],[1,0.5]];portConstraint=eastwest;fontSize=16;" parent="TRqNR9U4z2Vo2nN1Ei8_-53" vertex="1">
          <mxGeometry width="176" height="24" as="geometry" />
        </mxCell>
        <mxCell id="TRqNR9U4z2Vo2nN1Ei8_-55" value="Ожидание ввода отчета" style="shape=partialRectangle;html=1;whiteSpace=wrap;connectable=0;strokeColor=inherit;overflow=hidden;fillColor=none;top=0;left=0;bottom=0;right=0;pointerEvents=1;fontSize=16;rowspan=2;colspan=2;" parent="TRqNR9U4z2Vo2nN1Ei8_-54" vertex="1">
          <mxGeometry width="176" height="49" as="geometry">
            <mxRectangle width="88" height="24" as="alternateBounds" />
          </mxGeometry>
        </mxCell>
        <mxCell id="TRqNR9U4z2Vo2nN1Ei8_-56" value="" style="shape=partialRectangle;html=1;whiteSpace=wrap;connectable=0;strokeColor=inherit;overflow=hidden;fillColor=none;top=0;left=0;bottom=0;right=0;pointerEvents=1;fontSize=16;" parent="TRqNR9U4z2Vo2nN1Ei8_-54" vertex="1" visible="0">
          <mxGeometry x="88" width="88" height="24" as="geometry">
            <mxRectangle width="88" height="24" as="alternateBounds" />
          </mxGeometry>
        </mxCell>
        <mxCell id="TRqNR9U4z2Vo2nN1Ei8_-57" value="" style="shape=tableRow;horizontal=0;startSize=0;swimlaneHead=0;swimlaneBody=0;strokeColor=inherit;top=0;left=0;bottom=0;right=0;collapsible=0;dropTarget=0;fillColor=none;points=[[0,0.5],[1,0.5]];portConstraint=eastwest;fontSize=16;" parent="TRqNR9U4z2Vo2nN1Ei8_-53" vertex="1">
          <mxGeometry y="24" width="176" height="25" as="geometry" />
        </mxCell>
        <mxCell id="TRqNR9U4z2Vo2nN1Ei8_-58" value="" style="shape=partialRectangle;html=1;whiteSpace=wrap;connectable=0;strokeColor=inherit;overflow=hidden;fillColor=none;top=0;left=0;bottom=0;right=0;pointerEvents=1;fontSize=16;" parent="TRqNR9U4z2Vo2nN1Ei8_-57" vertex="1" visible="0">
          <mxGeometry width="88" height="25" as="geometry">
            <mxRectangle width="88" height="25" as="alternateBounds" />
          </mxGeometry>
        </mxCell>
        <mxCell id="TRqNR9U4z2Vo2nN1Ei8_-59" value="" style="shape=partialRectangle;html=1;whiteSpace=wrap;connectable=0;strokeColor=inherit;overflow=hidden;fillColor=none;top=0;left=0;bottom=0;right=0;pointerEvents=1;fontSize=16;" parent="TRqNR9U4z2Vo2nN1Ei8_-57" vertex="1" visible="0">
          <mxGeometry x="88" width="88" height="25" as="geometry">
            <mxRectangle width="88" height="25" as="alternateBounds" />
          </mxGeometry>
        </mxCell>
        <mxCell id="TRqNR9U4z2Vo2nN1Ei8_-60" value="" style="shape=tableRow;horizontal=0;startSize=0;swimlaneHead=0;swimlaneBody=0;strokeColor=inherit;top=0;left=0;bottom=0;right=0;collapsible=0;dropTarget=0;fillColor=none;points=[[0,0.5],[1,0.5]];portConstraint=eastwest;fontSize=16;" parent="TRqNR9U4z2Vo2nN1Ei8_-53" vertex="1">
          <mxGeometry y="49" width="176" height="24" as="geometry" />
        </mxCell>
        <mxCell id="TRqNR9U4z2Vo2nN1Ei8_-61" value="2" style="shape=partialRectangle;html=1;whiteSpace=wrap;connectable=0;strokeColor=inherit;overflow=hidden;fillColor=none;top=0;left=0;bottom=0;right=0;pointerEvents=1;fontSize=16;" parent="TRqNR9U4z2Vo2nN1Ei8_-60" vertex="1">
          <mxGeometry width="88" height="24" as="geometry">
            <mxRectangle width="88" height="24" as="alternateBounds" />
          </mxGeometry>
        </mxCell>
        <mxCell id="TRqNR9U4z2Vo2nN1Ei8_-62" value="" style="shape=partialRectangle;html=1;whiteSpace=wrap;connectable=0;strokeColor=inherit;overflow=hidden;fillColor=none;top=0;left=0;bottom=0;right=0;pointerEvents=1;fontSize=16;" parent="TRqNR9U4z2Vo2nN1Ei8_-60" vertex="1">
          <mxGeometry x="88" width="88" height="24" as="geometry">
            <mxRectangle width="88" height="24" as="alternateBounds" />
          </mxGeometry>
        </mxCell>
        <mxCell id="TRqNR9U4z2Vo2nN1Ei8_-73" value="" style="shape=table;startSize=0;container=1;collapsible=0;childLayout=tableLayout;fontSize=16;" parent="1" vertex="1">
          <mxGeometry x="1174" y="65" width="176" height="73" as="geometry" />
        </mxCell>
        <mxCell id="TRqNR9U4z2Vo2nN1Ei8_-74" value="" style="shape=tableRow;horizontal=0;startSize=0;swimlaneHead=0;swimlaneBody=0;strokeColor=inherit;top=0;left=0;bottom=0;right=0;collapsible=0;dropTarget=0;fillColor=none;points=[[0,0.5],[1,0.5]];portConstraint=eastwest;fontSize=16;" parent="TRqNR9U4z2Vo2nN1Ei8_-73" vertex="1">
          <mxGeometry width="176" height="24" as="geometry" />
        </mxCell>
        <mxCell id="TRqNR9U4z2Vo2nN1Ei8_-75" value="Сообщение о невалидных данных" style="shape=partialRectangle;html=1;whiteSpace=wrap;connectable=0;strokeColor=inherit;overflow=hidden;fillColor=none;top=0;left=0;bottom=0;right=0;pointerEvents=1;fontSize=16;rowspan=2;colspan=2;" parent="TRqNR9U4z2Vo2nN1Ei8_-74" vertex="1">
          <mxGeometry width="176" height="49" as="geometry">
            <mxRectangle width="88" height="24" as="alternateBounds" />
          </mxGeometry>
        </mxCell>
        <mxCell id="TRqNR9U4z2Vo2nN1Ei8_-76" value="" style="shape=partialRectangle;html=1;whiteSpace=wrap;connectable=0;strokeColor=inherit;overflow=hidden;fillColor=none;top=0;left=0;bottom=0;right=0;pointerEvents=1;fontSize=16;" parent="TRqNR9U4z2Vo2nN1Ei8_-74" vertex="1" visible="0">
          <mxGeometry x="88" width="88" height="24" as="geometry">
            <mxRectangle width="88" height="24" as="alternateBounds" />
          </mxGeometry>
        </mxCell>
        <mxCell id="TRqNR9U4z2Vo2nN1Ei8_-77" value="" style="shape=tableRow;horizontal=0;startSize=0;swimlaneHead=0;swimlaneBody=0;strokeColor=inherit;top=0;left=0;bottom=0;right=0;collapsible=0;dropTarget=0;fillColor=none;points=[[0,0.5],[1,0.5]];portConstraint=eastwest;fontSize=16;" parent="TRqNR9U4z2Vo2nN1Ei8_-73" vertex="1">
          <mxGeometry y="24" width="176" height="25" as="geometry" />
        </mxCell>
        <mxCell id="TRqNR9U4z2Vo2nN1Ei8_-78" value="" style="shape=partialRectangle;html=1;whiteSpace=wrap;connectable=0;strokeColor=inherit;overflow=hidden;fillColor=none;top=0;left=0;bottom=0;right=0;pointerEvents=1;fontSize=16;" parent="TRqNR9U4z2Vo2nN1Ei8_-77" vertex="1" visible="0">
          <mxGeometry width="88" height="25" as="geometry">
            <mxRectangle width="88" height="25" as="alternateBounds" />
          </mxGeometry>
        </mxCell>
        <mxCell id="TRqNR9U4z2Vo2nN1Ei8_-79" value="" style="shape=partialRectangle;html=1;whiteSpace=wrap;connectable=0;strokeColor=inherit;overflow=hidden;fillColor=none;top=0;left=0;bottom=0;right=0;pointerEvents=1;fontSize=16;" parent="TRqNR9U4z2Vo2nN1Ei8_-77" vertex="1" visible="0">
          <mxGeometry x="88" width="88" height="25" as="geometry">
            <mxRectangle width="88" height="25" as="alternateBounds" />
          </mxGeometry>
        </mxCell>
        <mxCell id="TRqNR9U4z2Vo2nN1Ei8_-80" value="" style="shape=tableRow;horizontal=0;startSize=0;swimlaneHead=0;swimlaneBody=0;strokeColor=inherit;top=0;left=0;bottom=0;right=0;collapsible=0;dropTarget=0;fillColor=none;points=[[0,0.5],[1,0.5]];portConstraint=eastwest;fontSize=16;" parent="TRqNR9U4z2Vo2nN1Ei8_-73" vertex="1">
          <mxGeometry y="49" width="176" height="24" as="geometry" />
        </mxCell>
        <mxCell id="TRqNR9U4z2Vo2nN1Ei8_-81" value="5" style="shape=partialRectangle;html=1;whiteSpace=wrap;connectable=0;strokeColor=inherit;overflow=hidden;fillColor=none;top=0;left=0;bottom=0;right=0;pointerEvents=1;fontSize=16;" parent="TRqNR9U4z2Vo2nN1Ei8_-80" vertex="1">
          <mxGeometry width="88" height="24" as="geometry">
            <mxRectangle width="88" height="24" as="alternateBounds" />
          </mxGeometry>
        </mxCell>
        <mxCell id="TRqNR9U4z2Vo2nN1Ei8_-82" value="" style="shape=partialRectangle;html=1;whiteSpace=wrap;connectable=0;strokeColor=inherit;overflow=hidden;fillColor=none;top=0;left=0;bottom=0;right=0;pointerEvents=1;fontSize=16;" parent="TRqNR9U4z2Vo2nN1Ei8_-80" vertex="1">
          <mxGeometry x="88" width="88" height="24" as="geometry">
            <mxRectangle width="88" height="24" as="alternateBounds" />
          </mxGeometry>
        </mxCell>
        <mxCell id="TRqNR9U4z2Vo2nN1Ei8_-83" value="" style="shape=table;startSize=0;container=1;collapsible=0;childLayout=tableLayout;fontSize=16;" parent="1" vertex="1">
          <mxGeometry x="1170" y="252" width="176" height="73" as="geometry" />
        </mxCell>
        <mxCell id="TRqNR9U4z2Vo2nN1Ei8_-84" value="" style="shape=tableRow;horizontal=0;startSize=0;swimlaneHead=0;swimlaneBody=0;strokeColor=inherit;top=0;left=0;bottom=0;right=0;collapsible=0;dropTarget=0;fillColor=none;points=[[0,0.5],[1,0.5]];portConstraint=eastwest;fontSize=16;" parent="TRqNR9U4z2Vo2nN1Ei8_-83" vertex="1">
          <mxGeometry width="176" height="24" as="geometry" />
        </mxCell>
        <mxCell id="TRqNR9U4z2Vo2nN1Ei8_-85" value="Обработка данных" style="shape=partialRectangle;html=1;whiteSpace=wrap;connectable=0;strokeColor=inherit;overflow=hidden;fillColor=none;top=0;left=0;bottom=0;right=0;pointerEvents=1;fontSize=16;rowspan=2;colspan=2;" parent="TRqNR9U4z2Vo2nN1Ei8_-84" vertex="1">
          <mxGeometry width="176" height="49" as="geometry">
            <mxRectangle width="88" height="24" as="alternateBounds" />
          </mxGeometry>
        </mxCell>
        <mxCell id="TRqNR9U4z2Vo2nN1Ei8_-86" value="" style="shape=partialRectangle;html=1;whiteSpace=wrap;connectable=0;strokeColor=inherit;overflow=hidden;fillColor=none;top=0;left=0;bottom=0;right=0;pointerEvents=1;fontSize=16;" parent="TRqNR9U4z2Vo2nN1Ei8_-84" vertex="1" visible="0">
          <mxGeometry x="88" width="88" height="24" as="geometry">
            <mxRectangle width="88" height="24" as="alternateBounds" />
          </mxGeometry>
        </mxCell>
        <mxCell id="TRqNR9U4z2Vo2nN1Ei8_-87" value="" style="shape=tableRow;horizontal=0;startSize=0;swimlaneHead=0;swimlaneBody=0;strokeColor=inherit;top=0;left=0;bottom=0;right=0;collapsible=0;dropTarget=0;fillColor=none;points=[[0,0.5],[1,0.5]];portConstraint=eastwest;fontSize=16;" parent="TRqNR9U4z2Vo2nN1Ei8_-83" vertex="1">
          <mxGeometry y="24" width="176" height="25" as="geometry" />
        </mxCell>
        <mxCell id="TRqNR9U4z2Vo2nN1Ei8_-88" value="" style="shape=partialRectangle;html=1;whiteSpace=wrap;connectable=0;strokeColor=inherit;overflow=hidden;fillColor=none;top=0;left=0;bottom=0;right=0;pointerEvents=1;fontSize=16;" parent="TRqNR9U4z2Vo2nN1Ei8_-87" vertex="1" visible="0">
          <mxGeometry width="88" height="25" as="geometry">
            <mxRectangle width="88" height="25" as="alternateBounds" />
          </mxGeometry>
        </mxCell>
        <mxCell id="TRqNR9U4z2Vo2nN1Ei8_-89" value="" style="shape=partialRectangle;html=1;whiteSpace=wrap;connectable=0;strokeColor=inherit;overflow=hidden;fillColor=none;top=0;left=0;bottom=0;right=0;pointerEvents=1;fontSize=16;" parent="TRqNR9U4z2Vo2nN1Ei8_-87" vertex="1" visible="0">
          <mxGeometry x="88" width="88" height="25" as="geometry">
            <mxRectangle width="88" height="25" as="alternateBounds" />
          </mxGeometry>
        </mxCell>
        <mxCell id="TRqNR9U4z2Vo2nN1Ei8_-90" value="" style="shape=tableRow;horizontal=0;startSize=0;swimlaneHead=0;swimlaneBody=0;strokeColor=inherit;top=0;left=0;bottom=0;right=0;collapsible=0;dropTarget=0;fillColor=none;points=[[0,0.5],[1,0.5]];portConstraint=eastwest;fontSize=16;" parent="TRqNR9U4z2Vo2nN1Ei8_-83" vertex="1">
          <mxGeometry y="49" width="176" height="24" as="geometry" />
        </mxCell>
        <mxCell id="TRqNR9U4z2Vo2nN1Ei8_-91" value="4" style="shape=partialRectangle;html=1;whiteSpace=wrap;connectable=0;strokeColor=inherit;overflow=hidden;fillColor=none;top=0;left=0;bottom=0;right=0;pointerEvents=1;fontSize=16;" parent="TRqNR9U4z2Vo2nN1Ei8_-90" vertex="1">
          <mxGeometry width="88" height="24" as="geometry">
            <mxRectangle width="88" height="24" as="alternateBounds" />
          </mxGeometry>
        </mxCell>
        <mxCell id="TRqNR9U4z2Vo2nN1Ei8_-92" value="" style="shape=partialRectangle;html=1;whiteSpace=wrap;connectable=0;strokeColor=inherit;overflow=hidden;fillColor=none;top=0;left=0;bottom=0;right=0;pointerEvents=1;fontSize=16;" parent="TRqNR9U4z2Vo2nN1Ei8_-90" vertex="1">
          <mxGeometry x="88" width="88" height="24" as="geometry">
            <mxRectangle width="88" height="24" as="alternateBounds" />
          </mxGeometry>
        </mxCell>
        <mxCell id="TRqNR9U4z2Vo2nN1Ei8_-93" value="" style="shape=table;startSize=0;container=1;collapsible=0;childLayout=tableLayout;fontSize=16;" parent="1" vertex="1">
          <mxGeometry x="1415" y="161" width="176" height="73" as="geometry" />
        </mxCell>
        <mxCell id="TRqNR9U4z2Vo2nN1Ei8_-94" value="" style="shape=tableRow;horizontal=0;startSize=0;swimlaneHead=0;swimlaneBody=0;strokeColor=inherit;top=0;left=0;bottom=0;right=0;collapsible=0;dropTarget=0;fillColor=none;points=[[0,0.5],[1,0.5]];portConstraint=eastwest;fontSize=16;" parent="TRqNR9U4z2Vo2nN1Ei8_-93" vertex="1">
          <mxGeometry width="176" height="24" as="geometry" />
        </mxCell>
        <mxCell id="TRqNR9U4z2Vo2nN1Ei8_-95" value="Сохранение отчета" style="shape=partialRectangle;html=1;whiteSpace=wrap;connectable=0;strokeColor=inherit;overflow=hidden;fillColor=none;top=0;left=0;bottom=0;right=0;pointerEvents=1;fontSize=16;rowspan=2;colspan=2;" parent="TRqNR9U4z2Vo2nN1Ei8_-94" vertex="1">
          <mxGeometry width="176" height="49" as="geometry">
            <mxRectangle width="88" height="24" as="alternateBounds" />
          </mxGeometry>
        </mxCell>
        <mxCell id="TRqNR9U4z2Vo2nN1Ei8_-96" value="" style="shape=partialRectangle;html=1;whiteSpace=wrap;connectable=0;strokeColor=inherit;overflow=hidden;fillColor=none;top=0;left=0;bottom=0;right=0;pointerEvents=1;fontSize=16;" parent="TRqNR9U4z2Vo2nN1Ei8_-94" vertex="1" visible="0">
          <mxGeometry x="88" width="88" height="24" as="geometry">
            <mxRectangle width="88" height="24" as="alternateBounds" />
          </mxGeometry>
        </mxCell>
        <mxCell id="TRqNR9U4z2Vo2nN1Ei8_-97" value="" style="shape=tableRow;horizontal=0;startSize=0;swimlaneHead=0;swimlaneBody=0;strokeColor=inherit;top=0;left=0;bottom=0;right=0;collapsible=0;dropTarget=0;fillColor=none;points=[[0,0.5],[1,0.5]];portConstraint=eastwest;fontSize=16;" parent="TRqNR9U4z2Vo2nN1Ei8_-93" vertex="1">
          <mxGeometry y="24" width="176" height="25" as="geometry" />
        </mxCell>
        <mxCell id="TRqNR9U4z2Vo2nN1Ei8_-98" value="" style="shape=partialRectangle;html=1;whiteSpace=wrap;connectable=0;strokeColor=inherit;overflow=hidden;fillColor=none;top=0;left=0;bottom=0;right=0;pointerEvents=1;fontSize=16;" parent="TRqNR9U4z2Vo2nN1Ei8_-97" vertex="1" visible="0">
          <mxGeometry width="88" height="25" as="geometry">
            <mxRectangle width="88" height="25" as="alternateBounds" />
          </mxGeometry>
        </mxCell>
        <mxCell id="TRqNR9U4z2Vo2nN1Ei8_-99" value="" style="shape=partialRectangle;html=1;whiteSpace=wrap;connectable=0;strokeColor=inherit;overflow=hidden;fillColor=none;top=0;left=0;bottom=0;right=0;pointerEvents=1;fontSize=16;" parent="TRqNR9U4z2Vo2nN1Ei8_-97" vertex="1" visible="0">
          <mxGeometry x="88" width="88" height="25" as="geometry">
            <mxRectangle width="88" height="25" as="alternateBounds" />
          </mxGeometry>
        </mxCell>
        <mxCell id="TRqNR9U4z2Vo2nN1Ei8_-100" value="" style="shape=tableRow;horizontal=0;startSize=0;swimlaneHead=0;swimlaneBody=0;strokeColor=inherit;top=0;left=0;bottom=0;right=0;collapsible=0;dropTarget=0;fillColor=none;points=[[0,0.5],[1,0.5]];portConstraint=eastwest;fontSize=16;" parent="TRqNR9U4z2Vo2nN1Ei8_-93" vertex="1">
          <mxGeometry y="49" width="176" height="24" as="geometry" />
        </mxCell>
        <mxCell id="TRqNR9U4z2Vo2nN1Ei8_-101" value="6" style="shape=partialRectangle;html=1;whiteSpace=wrap;connectable=0;strokeColor=inherit;overflow=hidden;fillColor=none;top=0;left=0;bottom=0;right=0;pointerEvents=1;fontSize=16;" parent="TRqNR9U4z2Vo2nN1Ei8_-100" vertex="1">
          <mxGeometry width="88" height="24" as="geometry">
            <mxRectangle width="88" height="24" as="alternateBounds" />
          </mxGeometry>
        </mxCell>
        <mxCell id="TRqNR9U4z2Vo2nN1Ei8_-102" value="" style="shape=partialRectangle;html=1;whiteSpace=wrap;connectable=0;strokeColor=inherit;overflow=hidden;fillColor=none;top=0;left=0;bottom=0;right=0;pointerEvents=1;fontSize=16;" parent="TRqNR9U4z2Vo2nN1Ei8_-100" vertex="1">
          <mxGeometry x="88" width="88" height="24" as="geometry">
            <mxRectangle width="88" height="24" as="alternateBounds" />
          </mxGeometry>
        </mxCell>
        <mxCell id="TRqNR9U4z2Vo2nN1Ei8_-106" value="" style="endArrow=classic;html=1;rounded=0;exitX=1;exitY=0.5;exitDx=0;exitDy=0;entryX=0;entryY=0.5;entryDx=0;entryDy=0;" parent="1" source="TRqNR9U4z2Vo2nN1Ei8_-31" target="TRqNR9U4z2Vo2nN1Ei8_-54" edge="1">
          <mxGeometry width="50" height="50" relative="1" as="geometry">
            <mxPoint x="548" y="349" as="sourcePoint" />
            <mxPoint x="598" y="299" as="targetPoint" />
          </mxGeometry>
        </mxCell>
        <mxCell id="TRqNR9U4z2Vo2nN1Ei8_-63" value="" style="shape=table;startSize=0;container=1;collapsible=0;childLayout=tableLayout;fontSize=16;" parent="1" vertex="1">
          <mxGeometry x="827" y="179" width="176" height="73" as="geometry" />
        </mxCell>
        <mxCell id="TRqNR9U4z2Vo2nN1Ei8_-64" value="" style="shape=tableRow;horizontal=0;startSize=0;swimlaneHead=0;swimlaneBody=0;strokeColor=inherit;top=0;left=0;bottom=0;right=0;collapsible=0;dropTarget=0;fillColor=none;points=[[0,0.5],[1,0.5]];portConstraint=eastwest;fontSize=16;" parent="TRqNR9U4z2Vo2nN1Ei8_-63" vertex="1">
          <mxGeometry width="176" height="24" as="geometry" />
        </mxCell>
        <mxCell id="TRqNR9U4z2Vo2nN1Ei8_-65" value="Валидация введенных данных" style="shape=partialRectangle;html=1;whiteSpace=wrap;connectable=0;strokeColor=inherit;overflow=hidden;fillColor=none;top=0;left=0;bottom=0;right=0;pointerEvents=1;fontSize=16;rowspan=2;colspan=2;" parent="TRqNR9U4z2Vo2nN1Ei8_-64" vertex="1">
          <mxGeometry width="176" height="49" as="geometry">
            <mxRectangle width="88" height="24" as="alternateBounds" />
          </mxGeometry>
        </mxCell>
        <mxCell id="TRqNR9U4z2Vo2nN1Ei8_-66" value="" style="shape=partialRectangle;html=1;whiteSpace=wrap;connectable=0;strokeColor=inherit;overflow=hidden;fillColor=none;top=0;left=0;bottom=0;right=0;pointerEvents=1;fontSize=16;" parent="TRqNR9U4z2Vo2nN1Ei8_-64" vertex="1" visible="0">
          <mxGeometry x="88" width="88" height="24" as="geometry">
            <mxRectangle width="88" height="24" as="alternateBounds" />
          </mxGeometry>
        </mxCell>
        <mxCell id="TRqNR9U4z2Vo2nN1Ei8_-67" value="" style="shape=tableRow;horizontal=0;startSize=0;swimlaneHead=0;swimlaneBody=0;strokeColor=inherit;top=0;left=0;bottom=0;right=0;collapsible=0;dropTarget=0;fillColor=none;points=[[0,0.5],[1,0.5]];portConstraint=eastwest;fontSize=16;" parent="TRqNR9U4z2Vo2nN1Ei8_-63" vertex="1">
          <mxGeometry y="24" width="176" height="25" as="geometry" />
        </mxCell>
        <mxCell id="TRqNR9U4z2Vo2nN1Ei8_-68" value="" style="shape=partialRectangle;html=1;whiteSpace=wrap;connectable=0;strokeColor=inherit;overflow=hidden;fillColor=none;top=0;left=0;bottom=0;right=0;pointerEvents=1;fontSize=16;" parent="TRqNR9U4z2Vo2nN1Ei8_-67" vertex="1" visible="0">
          <mxGeometry width="88" height="25" as="geometry">
            <mxRectangle width="88" height="25" as="alternateBounds" />
          </mxGeometry>
        </mxCell>
        <mxCell id="TRqNR9U4z2Vo2nN1Ei8_-69" value="" style="shape=partialRectangle;html=1;whiteSpace=wrap;connectable=0;strokeColor=inherit;overflow=hidden;fillColor=none;top=0;left=0;bottom=0;right=0;pointerEvents=1;fontSize=16;" parent="TRqNR9U4z2Vo2nN1Ei8_-67" vertex="1" visible="0">
          <mxGeometry x="88" width="88" height="25" as="geometry">
            <mxRectangle width="88" height="25" as="alternateBounds" />
          </mxGeometry>
        </mxCell>
        <mxCell id="TRqNR9U4z2Vo2nN1Ei8_-70" value="" style="shape=tableRow;horizontal=0;startSize=0;swimlaneHead=0;swimlaneBody=0;strokeColor=inherit;top=0;left=0;bottom=0;right=0;collapsible=0;dropTarget=0;fillColor=none;points=[[0,0.5],[1,0.5]];portConstraint=eastwest;fontSize=16;" parent="TRqNR9U4z2Vo2nN1Ei8_-63" vertex="1">
          <mxGeometry y="49" width="176" height="24" as="geometry" />
        </mxCell>
        <mxCell id="TRqNR9U4z2Vo2nN1Ei8_-71" value="3" style="shape=partialRectangle;html=1;whiteSpace=wrap;connectable=0;strokeColor=inherit;overflow=hidden;fillColor=none;top=0;left=0;bottom=0;right=0;pointerEvents=1;fontSize=16;" parent="TRqNR9U4z2Vo2nN1Ei8_-70" vertex="1">
          <mxGeometry width="88" height="24" as="geometry">
            <mxRectangle width="88" height="24" as="alternateBounds" />
          </mxGeometry>
        </mxCell>
        <mxCell id="TRqNR9U4z2Vo2nN1Ei8_-72" value="" style="shape=partialRectangle;html=1;whiteSpace=wrap;connectable=0;strokeColor=inherit;overflow=hidden;fillColor=none;top=0;left=0;bottom=0;right=0;pointerEvents=1;fontSize=16;" parent="TRqNR9U4z2Vo2nN1Ei8_-70" vertex="1">
          <mxGeometry x="88" width="88" height="24" as="geometry">
            <mxRectangle width="88" height="24" as="alternateBounds" />
          </mxGeometry>
        </mxCell>
        <mxCell id="TRqNR9U4z2Vo2nN1Ei8_-107" value="" style="endArrow=classic;html=1;rounded=0;entryX=0;entryY=0.5;entryDx=0;entryDy=0;exitX=1;exitY=0.5;exitDx=0;exitDy=0;" parent="1" source="TRqNR9U4z2Vo2nN1Ei8_-54" target="TRqNR9U4z2Vo2nN1Ei8_-64" edge="1">
          <mxGeometry width="50" height="50" relative="1" as="geometry">
            <mxPoint x="747" y="156" as="sourcePoint" />
            <mxPoint x="797" y="106" as="targetPoint" />
          </mxGeometry>
        </mxCell>
        <mxCell id="TRqNR9U4z2Vo2nN1Ei8_-108" value="" style="shape=table;startSize=0;container=1;collapsible=0;childLayout=tableLayout;fontSize=16;" parent="1" vertex="1">
          <mxGeometry x="1058" y="172" width="44" height="40" as="geometry" />
        </mxCell>
        <mxCell id="TRqNR9U4z2Vo2nN1Ei8_-109" value="" style="shape=tableRow;horizontal=0;startSize=0;swimlaneHead=0;swimlaneBody=0;strokeColor=inherit;top=0;left=0;bottom=0;right=0;collapsible=0;dropTarget=0;fillColor=none;points=[[0,0.5],[1,0.5]];portConstraint=eastwest;fontSize=16;" parent="TRqNR9U4z2Vo2nN1Ei8_-108" vertex="1">
          <mxGeometry width="44" height="40" as="geometry" />
        </mxCell>
        <mxCell id="TRqNR9U4z2Vo2nN1Ei8_-110" value="" style="shape=partialRectangle;html=1;whiteSpace=wrap;connectable=0;strokeColor=inherit;overflow=hidden;fillColor=none;top=0;left=0;bottom=0;right=0;pointerEvents=1;fontSize=16;" parent="TRqNR9U4z2Vo2nN1Ei8_-109" vertex="1">
          <mxGeometry width="15" height="40" as="geometry">
            <mxRectangle width="15" height="40" as="alternateBounds" />
          </mxGeometry>
        </mxCell>
        <mxCell id="TRqNR9U4z2Vo2nN1Ei8_-111" value="X" style="shape=partialRectangle;html=1;whiteSpace=wrap;connectable=0;strokeColor=inherit;overflow=hidden;fillColor=none;top=0;left=0;bottom=0;right=0;pointerEvents=1;fontSize=16;rowspan=1;colspan=2;" parent="TRqNR9U4z2Vo2nN1Ei8_-109" vertex="1">
          <mxGeometry x="15" width="29" height="40" as="geometry">
            <mxRectangle width="14" height="40" as="alternateBounds" />
          </mxGeometry>
        </mxCell>
        <mxCell id="TRqNR9U4z2Vo2nN1Ei8_-112" value="" style="shape=partialRectangle;html=1;whiteSpace=wrap;connectable=0;strokeColor=inherit;overflow=hidden;fillColor=none;top=0;left=0;bottom=0;right=0;pointerEvents=1;fontSize=16;" parent="TRqNR9U4z2Vo2nN1Ei8_-109" vertex="1" visible="0">
          <mxGeometry x="29" width="15" height="40" as="geometry">
            <mxRectangle width="15" height="40" as="alternateBounds" />
          </mxGeometry>
        </mxCell>
        <mxCell id="TRqNR9U4z2Vo2nN1Ei8_-113" value="" style="endArrow=classic;html=1;rounded=0;entryX=0;entryY=0.5;entryDx=0;entryDy=0;exitX=1;exitY=0.5;exitDx=0;exitDy=0;" parent="1" source="TRqNR9U4z2Vo2nN1Ei8_-64" target="TRqNR9U4z2Vo2nN1Ei8_-109" edge="1">
          <mxGeometry width="50" height="50" relative="1" as="geometry">
            <mxPoint x="987" y="139" as="sourcePoint" />
            <mxPoint x="1037" y="89" as="targetPoint" />
          </mxGeometry>
        </mxCell>
        <mxCell id="TRqNR9U4z2Vo2nN1Ei8_-114" value="" style="edgeStyle=orthogonalEdgeStyle;rounded=0;orthogonalLoop=1;jettySize=auto;html=1;" parent="1" edge="1">
          <mxGeometry relative="1" as="geometry">
            <mxPoint x="73" y="386" as="sourcePoint" />
            <mxPoint x="227" y="314" as="targetPoint" />
            <Array as="points">
              <mxPoint x="73" y="470" />
              <mxPoint x="228" y="470" />
            </Array>
          </mxGeometry>
        </mxCell>
        <mxCell id="TRqNR9U4z2Vo2nN1Ei8_-115" value="" style="edgeStyle=orthogonalEdgeStyle;rounded=0;orthogonalLoop=1;jettySize=auto;html=1;entryX=0;entryY=0.5;entryDx=0;entryDy=0;exitX=0.636;exitY=-0.023;exitDx=0;exitDy=0;exitPerimeter=0;" parent="1" source="TRqNR9U4z2Vo2nN1Ei8_-109" target="TRqNR9U4z2Vo2nN1Ei8_-74" edge="1">
          <mxGeometry relative="1" as="geometry">
            <mxPoint x="952" y="409" as="sourcePoint" />
            <mxPoint x="1106" y="337" as="targetPoint" />
            <Array as="points">
              <mxPoint x="1086" y="77" />
            </Array>
          </mxGeometry>
        </mxCell>
        <mxCell id="TRqNR9U4z2Vo2nN1Ei8_-116" value="" style="edgeStyle=orthogonalEdgeStyle;rounded=0;orthogonalLoop=1;jettySize=auto;html=1;exitX=0.515;exitY=1.017;exitDx=0;exitDy=0;exitPerimeter=0;entryX=0;entryY=0.5;entryDx=0;entryDy=0;" parent="1" source="TRqNR9U4z2Vo2nN1Ei8_-109" target="TRqNR9U4z2Vo2nN1Ei8_-84" edge="1">
          <mxGeometry relative="1" as="geometry">
            <mxPoint x="1096" y="476" as="sourcePoint" />
            <mxPoint x="1250" y="404" as="targetPoint" />
            <Array as="points">
              <mxPoint x="1081" y="264" />
            </Array>
          </mxGeometry>
        </mxCell>
        <mxCell id="TRqNR9U4z2Vo2nN1Ei8_-117" value="" style="edgeStyle=orthogonalEdgeStyle;rounded=0;orthogonalLoop=1;jettySize=auto;html=1;entryX=0;entryY=0.5;entryDx=0;entryDy=0;exitX=1;exitY=0.5;exitDx=0;exitDy=0;" parent="1" source="TRqNR9U4z2Vo2nN1Ei8_-84" target="TRqNR9U4z2Vo2nN1Ei8_-94" edge="1">
          <mxGeometry relative="1" as="geometry">
            <mxPoint x="1277" y="392" as="sourcePoint" />
            <mxPoint x="1431" y="320" as="targetPoint" />
            <Array as="points">
              <mxPoint x="1388" y="264" />
              <mxPoint x="1388" y="173" />
            </Array>
          </mxGeometry>
        </mxCell>
        <mxCell id="TRqNR9U4z2Vo2nN1Ei8_-118" value="" style="edgeStyle=orthogonalEdgeStyle;rounded=0;orthogonalLoop=1;jettySize=auto;html=1;exitX=0.288;exitY=0.019;exitDx=0;exitDy=0;exitPerimeter=0;entryX=0.474;entryY=-0.061;entryDx=0;entryDy=0;entryPerimeter=0;" parent="1" source="TRqNR9U4z2Vo2nN1Ei8_-74" target="TRqNR9U4z2Vo2nN1Ei8_-54" edge="1">
          <mxGeometry relative="1" as="geometry">
            <mxPoint x="975" y="426" as="sourcePoint" />
            <mxPoint x="1129" y="354" as="targetPoint" />
            <Array as="points">
              <mxPoint x="1225" y="43" />
              <mxPoint x="644" y="43" />
            </Array>
          </mxGeometry>
        </mxCell>
        <mxCell id="TRqNR9U4z2Vo2nN1Ei8_-119" value="" style="edgeStyle=orthogonalEdgeStyle;rounded=0;orthogonalLoop=1;jettySize=auto;html=1;entryX=0.499;entryY=1.396;entryDx=0;entryDy=0;entryPerimeter=0;" parent="1" source="TRqNR9U4z2Vo2nN1Ei8_-100" target="TRqNR9U4z2Vo2nN1Ei8_-37" edge="1">
          <mxGeometry relative="1" as="geometry">
            <mxPoint x="1021" y="539" as="sourcePoint" />
            <mxPoint x="454" y="371" as="targetPoint" />
            <Array as="points">
              <mxPoint x="1503" y="374" />
              <mxPoint x="417" y="374" />
            </Array>
          </mxGeometry>
        </mxCell>
      </root>
    </mxGraphModel>
  </diagram>
</mxfile>
